<?xml version="1.0" encoding="UTF-8"?>
<svg version="1.1" xmlns="http://www.w3.org/2000/svg" width="84" height="90">
<path d="M0 0 C13.86 0 27.72 0 42 0 C42 1.98 42 3.96 42 6 C47.94 6 53.88 6 60 6 C60 7.98 60 9.96 60 12 C61.98 12 63.96 12 66 12 C66 15.96 66 19.92 66 24 C64.02 24 62.04 24 60 24 C60 33.9 60 43.8 60 54 C61.98 54 63.96 54 66 54 C66 55.98 66 57.96 66 60 C64.02 60 62.04 60 60 60 C60 65.94 60 71.88 60 78 C56.04 78 52.08 78 48 78 C48 79.98 48 81.96 48 84 C44.04 84 40.08 84 36 84 C36 85.98 36 87.96 36 90 C32.04 90 28.08 90 24 90 C24 88.02 24 86.04 24 84 C20.04 84 16.08 84 12 84 C12 82.02 12 80.04 12 78 C8.04 78 4.08 78 0 78 C0 76.02 0 74.04 0 72 C-3.96 72 -7.92 72 -12 72 C-12 68.04 -12 64.08 -12 60 C-13.98 60 -15.96 60 -18 60 C-18 58.02 -18 56.04 -18 54 C-16.02 54 -14.04 54 -12 54 C-12 48.06 -12 42.12 -12 36 C-10.02 36 -8.04 36 -6 36 C-6 28.08 -6 20.16 -6 12 C-4.02 12 -2.04 12 0 12 C0 8.04 0 4.08 0 0 Z " fill="#FFC449" transform="translate(18,0)"/>
<path d="M0 0 C3.96 0 7.92 0 12 0 C12 1.98 12 3.96 12 6 C13.98 6 15.96 6 18 6 C18 15.9 18 25.8 18 36 C19.98 36 21.96 36 24 36 C24 37.98 24 39.96 24 42 C22.02 42 20.04 42 18 42 C18 47.94 18 53.88 18 60 C14.04 60 10.08 60 6 60 C6 61.98 6 63.96 6 66 C2.04 66 -1.92 66 -6 66 C-6 67.98 -6 69.96 -6 72 C-9.96 72 -13.92 72 -18 72 C-18 70.02 -18 68.04 -18 66 C-21.96 66 -25.92 66 -30 66 C-30 60.06 -30 54.12 -30 48 C-31.98 48 -33.96 48 -36 48 C-36 40.08 -36 32.16 -36 24 C-32.04 24 -28.08 24 -24 24 C-24 22.02 -24 20.04 -24 18 C-18.06 18 -12.12 18 -6 18 C-6 16.02 -6 14.04 -6 12 C-4.02 12 -2.04 12 0 12 C0 8.04 0 4.08 0 0 Z " fill="#E35F43" transform="translate(60,18)"/>
<path d="M0 0 C13.86 0 27.72 0 42 0 C42 1.98 42 3.96 42 6 C47.94 6 53.88 6 60 6 C60 7.98 60 9.96 60 12 C61.98 12 63.96 12 66 12 C66 15.96 66 19.92 66 24 C62.04 24 58.08 24 54 24 C54 22.02 54 20.04 54 18 C46.08 18 38.16 18 30 18 C30 19.98 30 21.96 30 24 C22.08 24 14.16 24 6 24 C6 25.98 6 27.96 6 30 C2.04 30 -1.92 30 -6 30 C-6 24.06 -6 18.12 -6 12 C-4.02 12 -2.04 12 0 12 C0 8.04 0 4.08 0 0 Z " fill="#FFD885" transform="translate(18,0)"/>
<path d="M0 0 C1.98 0 3.96 0 6 0 C6 3.96 6 7.92 6 12 C9.96 12 13.92 12 18 12 C18 17.94 18 23.88 18 30 C19.98 30 21.96 30 24 30 C24 33.96 24 37.92 24 42 C20.04 42 16.08 42 12 42 C12 40.02 12 38.04 12 36 C8.04 36 4.08 36 0 36 C0 32.04 0 28.08 0 24 C-1.98 24 -3.96 24 -6 24 C-6 22.02 -6 20.04 -6 18 C-4.02 18 -2.04 18 0 18 C0 12.06 0 6.12 0 0 Z " fill="#FFC958" transform="translate(6,36)"/>
<path d="M0 0 C9.9 0 19.8 0 30 0 C30 1.98 30 3.96 30 6 C31.98 6 33.96 6 36 6 C36 9.96 36 13.92 36 18 C32.04 18 28.08 18 24 18 C24 16.02 24 14.04 24 12 C16.08 12 8.16 12 0 12 C0 13.98 0 15.96 0 18 C-1.98 18 -3.96 18 -6 18 C-6 14.04 -6 10.08 -6 6 C-4.02 6 -2.04 6 0 6 C0 4.02 0 2.04 0 0 Z " fill="#FFD171" transform="translate(48,6)"/>
<path d="M0 0 C13.86 0 27.72 0 42 0 C42 1.98 42 3.96 42 6 C38.04 6 34.08 6 30 6 C30 7.98 30 9.96 30 12 C20.1 12 10.2 12 0 12 C0 8.04 0 4.08 0 0 Z " fill="#FFE2A4" transform="translate(18,0)"/>
<path d="M0 0 C5.94 0 11.88 0 18 0 C18 1.98 18 3.96 18 6 C16.02 6 14.04 6 12 6 C12 7.98 12 9.96 12 12 C10.02 12 8.04 12 6 12 C6 13.98 6 15.96 6 18 C2.04 18 -1.92 18 -6 18 C-6 19.98 -6 21.96 -6 24 C-7.98 24 -9.96 24 -12 24 C-12 18.06 -12 12.12 -12 6 C-8.04 6 -4.08 6 0 6 C0 4.02 0 2.04 0 0 Z " fill="#CB3D1E" transform="translate(36,36)"/>
<path d="M0 0 C3.96 0 7.92 0 12 0 C12 3.96 12 7.92 12 12 C10.02 12 8.04 12 6 12 C6 13.98 6 15.96 6 18 C0.06 18 -5.88 18 -12 18 C-12 16.02 -12 14.04 -12 12 C-13.98 12 -15.96 12 -18 12 C-18 10.02 -18 8.04 -18 6 C-12.06 6 -6.12 6 0 6 C0 4.02 0 2.04 0 0 Z " fill="#FFCC63" transform="translate(48,18)"/>
<path d="M0 0 C1.98 0 3.96 0 6 0 C6 3.96 6 7.92 6 12 C2.04 12 -1.92 12 -6 12 C-6 13.98 -6 15.96 -6 18 C-9.96 18 -13.92 18 -18 18 C-18 19.98 -18 21.96 -18 24 C-19.98 24 -21.96 24 -24 24 C-24 20.04 -24 16.08 -24 12 C-20.04 12 -16.08 12 -12 12 C-12 10.02 -12 8.04 -12 6 C-8.04 6 -4.08 6 0 6 C0 4.02 0 2.04 0 0 Z " fill="#DA4323" transform="translate(72,66)"/>
<path d="M0 0 C1.98 0 3.96 0 6 0 C6 11.88 6 23.76 6 36 C4.02 36 2.04 36 0 36 C0 32.04 0 28.08 0 24 C-1.98 24 -3.96 24 -6 24 C-6 22.02 -6 20.04 -6 18 C-4.02 18 -2.04 18 0 18 C0 12.06 0 6.12 0 0 Z " fill="#FFB51C" transform="translate(6,36)"/>
<path d="M0 0 C3.96 0 7.92 0 12 0 C12 1.98 12 3.96 12 6 C13.98 6 15.96 6 18 6 C18 9.96 18 13.92 18 18 C16.02 18 14.04 18 12 18 C12 16.02 12 14.04 12 12 C8.04 12 4.08 12 0 12 C0 8.04 0 4.08 0 0 Z " fill="#BE381C" transform="translate(60,18)"/>
<path d="M0 0 C5.94 0 11.88 0 18 0 C18 3.96 18 7.92 18 12 C14.04 12 10.08 12 6 12 C6 10.02 6 8.04 6 6 C4.02 6 2.04 6 0 6 C0 4.02 0 2.04 0 0 Z " fill="#FFBA2B" transform="translate(12,66)"/>
<path d="M0 0 C1.98 0 3.96 0 6 0 C6 1.98 6 3.96 6 6 C7.98 6 9.96 6 12 6 C12 9.96 12 13.92 12 18 C10.02 18 8.04 18 6 18 C6 16.02 6 14.04 6 12 C2.04 12 -1.92 12 -6 12 C-6 10.02 -6 8.04 -6 6 C-4.02 6 -2.04 6 0 6 C0 4.02 0 2.04 0 0 Z " fill="#FFCE67" transform="translate(24,24)"/>
<path d="M0 0 C9.9 0 19.8 0 30 0 C30 1.98 30 3.96 30 6 C20.1 6 10.2 6 0 6 C0 4.02 0 2.04 0 0 Z " fill="#FFD885" transform="translate(48,6)"/>
<path d="M0 0 C5.94 0 11.88 0 18 0 C18 1.98 18 3.96 18 6 C16.02 6 14.04 6 12 6 C12 7.98 12 9.96 12 12 C8.04 12 4.08 12 0 12 C0 8.04 0 4.08 0 0 Z " fill="#FFE2A4" transform="translate(18,0)"/>
<path d="M0 0 C5.94 0 11.88 0 18 0 C18 1.98 18 3.96 18 6 C14.04 6 10.08 6 6 6 C6 7.98 6 9.96 6 12 C4.02 12 2.04 12 0 12 C0 8.04 0 4.08 0 0 Z " fill="#C43B1D" transform="translate(24,48)"/>
<path d="M0 0 C5.94 0 11.88 0 18 0 C18 3.96 18 7.92 18 12 C16.02 12 14.04 12 12 12 C12 10.02 12 8.04 12 6 C8.04 6 4.08 6 0 6 C0 4.02 0 2.04 0 0 Z " fill="#E35F43" transform="translate(54,30)"/>
<path d="M0 0 C3.96 0 7.92 0 12 0 C12 1.98 12 3.96 12 6 C10.02 6 8.04 6 6 6 C6 7.98 6 9.96 6 12 C4.02 12 2.04 12 0 12 C0 8.04 0 4.08 0 0 Z " fill="#BE391C" transform="translate(48,78)"/>
<path d="M0 0 C1.98 0 3.96 0 6 0 C6 1.98 6 3.96 6 6 C7.98 6 9.96 6 12 6 C12 7.98 12 9.96 12 12 C8.04 12 4.08 12 0 12 C0 8.04 0 4.08 0 0 Z " fill="#D84120" transform="translate(30,72)"/>
<path d="M0 0 C5.94 0 11.88 0 18 0 C18 1.98 18 3.96 18 6 C12.06 6 6.12 6 0 6 C0 4.02 0 2.04 0 0 Z " fill="#DF4929" transform="translate(66,54)"/>
<path d="M0 0 C1.98 0 3.96 0 6 0 C6 3.96 6 7.92 6 12 C2.04 12 -1.92 12 -6 12 C-6 10.02 -6 8.04 -6 6 C-4.02 6 -2.04 6 0 6 C0 4.02 0 2.04 0 0 Z " fill="#E35F43" transform="translate(72,36)"/>
<path d="M0 0 C3.96 0 7.92 0 12 0 C12 1.98 12 3.96 12 6 C10.02 6 8.04 6 6 6 C6 7.98 6 9.96 6 12 C4.02 12 2.04 12 0 12 C0 8.04 0 4.08 0 0 Z " fill="#BE391C" transform="translate(42,36)"/>
<path d="M0 0 C3.96 0 7.92 0 12 0 C12 3.96 12 7.92 12 12 C10.02 12 8.04 12 6 12 C6 10.02 6 8.04 6 6 C4.02 6 2.04 6 0 6 C0 4.02 0 2.04 0 0 Z " fill="#FFC448" transform="translate(48,18)"/>
<path d="M0 0 C1.98 0 3.96 0 6 0 C6 3.96 6 7.92 6 12 C4.02 12 2.04 12 0 12 C0 8.04 0 4.08 0 0 Z " fill="#FFC958" transform="translate(24,66)"/>
<path d="M0 0 C1.98 0 3.96 0 6 0 C6 3.96 6 7.92 6 12 C4.02 12 2.04 12 0 12 C0 8.04 0 4.08 0 0 Z " fill="#FC942A" transform="translate(6,60)"/>
<path d="M0 0 C1.98 0 3.96 0 6 0 C6 3.96 6 7.92 6 12 C4.02 12 2.04 12 0 12 C0 8.04 0 4.08 0 0 Z " fill="#FFC449" transform="translate(18,48)"/>
<path d="M0 0 C3.96 0 7.92 0 12 0 C12 1.98 12 3.96 12 6 C8.04 6 4.08 6 0 6 C0 4.02 0 2.04 0 0 Z " fill="#EB8D79" transform="translate(66,48)"/>
<path d="M0 0 C1.98 0 3.96 0 6 0 C6 3.96 6 7.92 6 12 C4.02 12 2.04 12 0 12 C0 8.04 0 4.08 0 0 Z " fill="#B1341A" transform="translate(60,42)"/>
<path d="M0 0 C3.96 0 7.92 0 12 0 C12 1.98 12 3.96 12 6 C8.04 6 4.08 6 0 6 C0 4.02 0 2.04 0 0 Z " fill="#D84120" transform="translate(24,42)"/>
<path d="M0 0 C1.98 0 3.96 0 6 0 C6 3.96 6 7.92 6 12 C4.02 12 2.04 12 0 12 C0 8.04 0 4.08 0 0 Z " fill="#EEA000" transform="translate(6,36)"/>
<path d="M0 0 C3.96 0 7.92 0 12 0 C12 1.98 12 3.96 12 6 C8.04 6 4.08 6 0 6 C0 4.02 0 2.04 0 0 Z " fill="#FFBF3A" transform="translate(36,30)"/>
<path d="M0 0 C3.96 0 7.92 0 12 0 C12 1.98 12 3.96 12 6 C8.04 6 4.08 6 0 6 C0 4.02 0 2.04 0 0 Z " fill="#FFD885" transform="translate(72,18)"/>
<path d="M0 0 C3.96 0 7.92 0 12 0 C12 1.98 12 3.96 12 6 C8.04 6 4.08 6 0 6 C0 4.02 0 2.04 0 0 Z " fill="#D84020" transform="translate(60,18)"/>
<path d="M0 0 C3.96 0 7.92 0 12 0 C12 1.98 12 3.96 12 6 C8.04 6 4.08 6 0 6 C0 4.02 0 2.04 0 0 Z " fill="#FFECC3" transform="translate(18,6)"/>
<path d="M0 0 C1.98 0 3.96 0 6 0 C6 1.98 6 3.96 6 6 C4.02 6 2.04 6 0 6 C0 4.02 0 2.04 0 0 Z " fill="#200904" transform="translate(48,84)"/>
<path d="M0 0 C1.98 0 3.96 0 6 0 C6 1.98 6 3.96 6 6 C4.02 6 2.04 6 0 6 C0 4.02 0 2.04 0 0 Z " fill="#BE391C" transform="translate(42,84)"/>
<path d="M0 0 C1.98 0 3.96 0 6 0 C6 1.98 6 3.96 6 6 C4.02 6 2.04 6 0 6 C0 4.02 0 2.04 0 0 Z " fill="#CB3D1E" transform="translate(48,78)"/>
<path d="M0 0 C1.98 0 3.96 0 6 0 C6 1.98 6 3.96 6 6 C4.02 6 2.04 6 0 6 C0 4.02 0 2.04 0 0 Z " fill="#BE391C" transform="translate(36,78)"/>
<path d="M0 0 C1.98 0 3.96 0 6 0 C6 1.98 6 3.96 6 6 C4.02 6 2.04 6 0 6 C0 4.02 0 2.04 0 0 Z " fill="#BE391C" transform="translate(66,72)"/>
<path d="M0 0 C1.98 0 3.96 0 6 0 C6 1.98 6 3.96 6 6 C4.02 6 2.04 6 0 6 C0 4.02 0 2.04 0 0 Z " fill="#CB3D1E" transform="translate(30,72)"/>
<path d="M0 0 C1.98 0 3.96 0 6 0 C6 1.98 6 3.96 6 6 C4.02 6 2.04 6 0 6 C0 4.02 0 2.04 0 0 Z " fill="#FC942A" transform="translate(18,72)"/>
<path d="M0 0 C1.98 0 3.96 0 6 0 C6 1.98 6 3.96 6 6 C4.02 6 2.04 6 0 6 C0 4.02 0 2.04 0 0 Z " fill="#CB3D1E" transform="translate(72,66)"/>
<path d="M0 0 C1.98 0 3.96 0 6 0 C6 1.98 6 3.96 6 6 C4.02 6 2.04 6 0 6 C0 4.02 0 2.04 0 0 Z " fill="#FFC449" transform="translate(24,66)"/>
<path d="M0 0 C1.98 0 3.96 0 6 0 C6 1.98 6 3.96 6 6 C4.02 6 2.04 6 0 6 C0 4.02 0 2.04 0 0 Z " fill="#FFB51C" transform="translate(12,66)"/>
<path d="M0 0 C1.98 0 3.96 0 6 0 C6 1.98 6 3.96 6 6 C4.02 6 2.04 6 0 6 C0 4.02 0 2.04 0 0 Z " fill="#E7755D" transform="translate(72,60)"/>
<path d="M0 0 C1.98 0 3.96 0 6 0 C6 1.98 6 3.96 6 6 C4.02 6 2.04 6 0 6 C0 4.02 0 2.04 0 0 Z " fill="#FFBF3A" transform="translate(12,60)"/>
<path d="M0 0 C1.98 0 3.96 0 6 0 C6 1.98 6 3.96 6 6 C4.02 6 2.04 6 0 6 C0 4.02 0 2.04 0 0 Z " fill="#C18200" transform="translate(6,60)"/>
<path d="M0 0 C1.98 0 3.96 0 6 0 C6 1.98 6 3.96 6 6 C4.02 6 2.04 6 0 6 C0 4.02 0 2.04 0 0 Z " fill="#D84120" transform="translate(78,54)"/>
<path d="M0 0 C1.98 0 3.96 0 6 0 C6 1.98 6 3.96 6 6 C4.02 6 2.04 6 0 6 C0 4.02 0 2.04 0 0 Z " fill="#A43118" transform="translate(66,54)"/>
<path d="M0 0 C1.98 0 3.96 0 6 0 C6 1.98 6 3.96 6 6 C4.02 6 2.04 6 0 6 C0 4.02 0 2.04 0 0 Z " fill="#E15436" transform="translate(30,54)"/>
<path d="M0 0 C1.98 0 3.96 0 6 0 C6 1.98 6 3.96 6 6 C4.02 6 2.04 6 0 6 C0 4.02 0 2.04 0 0 Z " fill="#CB3D1E" transform="translate(24,54)"/>
<path d="M0 0 C1.98 0 3.96 0 6 0 C6 1.98 6 3.96 6 6 C4.02 6 2.04 6 0 6 C0 4.02 0 2.04 0 0 Z " fill="#E35F43" transform="translate(66,48)"/>
<path d="M0 0 C1.98 0 3.96 0 6 0 C6 1.98 6 3.96 6 6 C4.02 6 2.04 6 0 6 C0 4.02 0 2.04 0 0 Z " fill="#D84020" transform="translate(54,48)"/>
<path d="M0 0 C1.98 0 3.96 0 6 0 C6 1.98 6 3.96 6 6 C4.02 6 2.04 6 0 6 C0 4.02 0 2.04 0 0 Z " fill="#A43118" transform="translate(24,48)"/>
<path d="M0 0 C1.98 0 3.96 0 6 0 C6 1.98 6 3.96 6 6 C4.02 6 2.04 6 0 6 C0 4.02 0 2.04 0 0 Z " fill="#E35F43" transform="translate(18,48)"/>
<path d="M0 0 C1.98 0 3.96 0 6 0 C6 1.98 6 3.96 6 6 C4.02 6 2.04 6 0 6 C0 4.02 0 2.04 0 0 Z " fill="#FFBA2B" transform="translate(6,48)"/>
<path d="M0 0 C1.98 0 3.96 0 6 0 C6 1.98 6 3.96 6 6 C4.02 6 2.04 6 0 6 C0 4.02 0 2.04 0 0 Z " fill="#FFD885" transform="translate(66,42)"/>
<path d="M0 0 C1.98 0 3.96 0 6 0 C6 1.98 6 3.96 6 6 C4.02 6 2.04 6 0 6 C0 4.02 0 2.04 0 0 Z " fill="#000000" transform="translate(60,42)"/>
<path d="M0 0 C1.98 0 3.96 0 6 0 C6 1.98 6 3.96 6 6 C4.02 6 2.04 6 0 6 C0 4.02 0 2.04 0 0 Z " fill="#E35F43" transform="translate(24,42)"/>
<path d="M0 0 C1.98 0 3.96 0 6 0 C6 1.98 6 3.96 6 6 C4.02 6 2.04 6 0 6 C0 4.02 0 2.04 0 0 Z " fill="#FFD885" transform="translate(18,42)"/>
<path d="M0 0 C1.98 0 3.96 0 6 0 C6 1.98 6 3.96 6 6 C4.02 6 2.04 6 0 6 C0 4.02 0 2.04 0 0 Z " fill="#FFD885" transform="translate(72,36)"/>
<path d="M0 0 C1.98 0 3.96 0 6 0 C6 1.98 6 3.96 6 6 C4.02 6 2.04 6 0 6 C0 4.02 0 2.04 0 0 Z " fill="#FFD885" transform="translate(60,36)"/>
<path d="M0 0 C1.98 0 3.96 0 6 0 C6 1.98 6 3.96 6 6 C4.02 6 2.04 6 0 6 C0 4.02 0 2.04 0 0 Z " fill="#D84120" transform="translate(48,36)"/>
<path d="M0 0 C1.98 0 3.96 0 6 0 C6 1.98 6 3.96 6 6 C4.02 6 2.04 6 0 6 C0 4.02 0 2.04 0 0 Z " fill="#A43118" transform="translate(42,36)"/>
<path d="M0 0 C1.98 0 3.96 0 6 0 C6 1.98 6 3.96 6 6 C4.02 6 2.04 6 0 6 C0 4.02 0 2.04 0 0 Z " fill="#DF4929" transform="translate(36,36)"/>
<path d="M0 0 C1.98 0 3.96 0 6 0 C6 1.98 6 3.96 6 6 C4.02 6 2.04 6 0 6 C0 4.02 0 2.04 0 0 Z " fill="#FFB00D" transform="translate(6,36)"/>
<path d="M0 0 C1.98 0 3.96 0 6 0 C6 1.98 6 3.96 6 6 C4.02 6 2.04 6 0 6 C0 4.02 0 2.04 0 0 Z " fill="#BA5D03" transform="translate(72,30)"/>
<path d="M0 0 C1.98 0 3.96 0 6 0 C6 1.98 6 3.96 6 6 C4.02 6 2.04 6 0 6 C0 4.02 0 2.04 0 0 Z " fill="#CB3D1E" transform="translate(54,30)"/>
<path d="M0 0 C1.98 0 3.96 0 6 0 C6 1.98 6 3.96 6 6 C4.02 6 2.04 6 0 6 C0 4.02 0 2.04 0 0 Z " fill="#7D2412" transform="translate(72,24)"/>
<path d="M0 0 C1.98 0 3.96 0 6 0 C6 1.98 6 3.96 6 6 C4.02 6 2.04 6 0 6 C0 4.02 0 2.04 0 0 Z " fill="#B0351A" transform="translate(60,24)"/>
<path d="M0 0 C1.98 0 3.96 0 6 0 C6 1.98 6 3.96 6 6 C4.02 6 2.04 6 0 6 C0 4.02 0 2.04 0 0 Z " fill="#FFC958" transform="translate(30,24)"/>
<path d="M0 0 C1.98 0 3.96 0 6 0 C6 1.98 6 3.96 6 6 C4.02 6 2.04 6 0 6 C0 4.02 0 2.04 0 0 Z " fill="#FFD376" transform="translate(24,24)"/>
<path d="M0 0 C1.98 0 3.96 0 6 0 C6 1.98 6 3.96 6 6 C4.02 6 2.04 6 0 6 C0 4.02 0 2.04 0 0 Z " fill="#FFBF39" transform="translate(48,18)"/>
<path d="M0 0 C1.98 0 3.96 0 6 0 C6 1.98 6 3.96 6 6 C4.02 6 2.04 6 0 6 C0 4.02 0 2.04 0 0 Z " fill="#FFCE67" transform="translate(54,12)"/>
<path d="M0 0 C1.98 0 3.96 0 6 0 C6 1.98 6 3.96 6 6 C4.02 6 2.04 6 0 6 C0 4.02 0 2.04 0 0 Z " fill="#FFE2A4" transform="translate(12,12)"/>
<path d="M0 0 C1.98 0 3.96 0 6 0 C6 1.98 6 3.96 6 6 C4.02 6 2.04 6 0 6 C0 4.02 0 2.04 0 0 Z " fill="#FFECC3" transform="translate(48,0)"/>
<path d="M0 0 C1.98 0 3.96 0 6 0 C6 1.98 6 3.96 6 6 C4.02 6 2.04 6 0 6 C0 4.02 0 2.04 0 0 Z " fill="#FFECC3" transform="translate(30,0)"/>
</svg>
